<svg width="181" height="31" viewBox="0 0 181 31" fill="none" xmlns="http://www.w3.org/2000/svg">
<path d="M13.4766 21.0742V1.5625H20.3125V21.0742C20.3125 22.9753 19.8763 24.6224 19.0039 26.0156C18.1445 27.4089 16.9727 28.4896 15.4883 29.2578C14.0169 30.013 12.3633 30.3906 10.5273 30.3906C8.6263 30.3906 6.93359 30.0716 5.44922 29.4336C3.97786 28.7956 2.81901 27.8125 1.97266 26.4844C1.13932 25.1562 0.722656 23.4635 0.722656 21.4062H7.59766C7.59766 22.3698 7.70833 23.125 7.92969 23.6719C8.15104 24.2057 8.47656 24.5833 8.90625 24.8047C9.34896 25.013 9.88932 25.1172 10.5273 25.1172C11.1523 25.1172 11.6797 24.9609 12.1094 24.6484C12.5521 24.3229 12.8906 23.8607 13.125 23.2617C13.3594 22.6497 13.4766 21.9206 13.4766 21.0742ZM36.6992 24.8633V8.86719H43.3008V30H37.1289L36.6992 24.8633ZM37.3242 20.5664L39.043 20.5273C39.043 21.9466 38.8737 23.2617 38.5352 24.4727C38.1966 25.6706 37.6953 26.7122 37.0312 27.5977C36.3802 28.4831 35.5729 29.1732 34.6094 29.668C33.6589 30.1497 32.5586 30.3906 31.3086 30.3906C30.2669 30.3906 29.3099 30.2474 28.4375 29.9609C27.5781 29.6615 26.8359 29.1992 26.2109 28.5742C25.5859 27.9362 25.0977 27.1224 24.7461 26.1328C24.4076 25.1302 24.2383 23.9323 24.2383 22.5391V8.86719H30.8203V22.5781C30.8203 23.0469 30.8789 23.4505 30.9961 23.7891C31.1133 24.1276 31.2826 24.4141 31.5039 24.6484C31.7253 24.8698 31.9987 25.0391 32.3242 25.1562C32.6628 25.2604 33.0469 25.3125 33.4766 25.3125C34.4661 25.3125 35.2409 25.1042 35.8008 24.6875C36.3607 24.2708 36.7513 23.7044 36.9727 22.9883C37.207 22.2721 37.3242 21.4648 37.3242 20.5664ZM53.3789 0V30H46.7969V0H53.3789ZM52.5977 18.7109L51.0547 18.75C51.0547 17.2656 51.237 15.8984 51.6016 14.6484C51.9661 13.3984 52.487 12.3112 53.1641 11.3867C53.8411 10.4622 54.6549 9.74609 55.6055 9.23828C56.556 8.73047 57.6107 8.47656 58.7695 8.47656C59.8112 8.47656 60.7617 8.6263 61.6211 8.92578C62.4935 9.22526 63.2422 9.70703 63.8672 10.3711C64.5052 11.0352 64.9935 11.901 65.332 12.9688C65.6836 14.0365 65.8594 15.3385 65.8594 16.875V30H59.2383V16.8359C59.2383 15.9766 59.1146 15.3125 58.8672 14.8438C58.6328 14.362 58.2943 14.0299 57.8516 13.8477C57.4089 13.6523 56.8685 13.5547 56.2305 13.5547C55.4622 13.5547 54.8372 13.6849 54.3555 13.9453C53.8737 14.2057 53.5026 14.5703 53.2422 15.0391C52.9948 15.4948 52.8255 16.0352 52.7344 16.6602C52.6432 17.2852 52.5977 17.9688 52.5977 18.7109ZM76.4648 8.86719V30H69.8633V8.86719H76.4648ZM69.4727 3.41797C69.4727 2.48047 69.8112 1.71224 70.4883 1.11328C71.1654 0.514323 72.0443 0.214844 73.125 0.214844C74.2057 0.214844 75.0846 0.514323 75.7617 1.11328C76.4388 1.71224 76.7773 2.48047 76.7773 3.41797C76.7773 4.35547 76.4388 5.1237 75.7617 5.72266C75.0846 6.32161 74.2057 6.62109 73.125 6.62109C72.0443 6.62109 71.1654 6.32161 70.4883 5.72266C69.8112 5.1237 69.4727 4.35547 69.4727 3.41797Z" fill="#142959"/>
<path d="M97.0117 20.3711H103.848C103.757 22.3503 103.223 24.0951 102.246 25.6055C101.27 27.1159 99.9154 28.2943 98.1836 29.1406C96.4648 29.974 94.4336 30.3906 92.0898 30.3906C90.1888 30.3906 88.4896 30.0716 86.9922 29.4336C85.5078 28.7956 84.2448 27.8776 83.2031 26.6797C82.1745 25.4818 81.3867 24.0299 80.8398 22.3242C80.306 20.6185 80.0391 18.6979 80.0391 16.5625V15.0195C80.0391 12.8841 80.319 10.9635 80.8789 9.25781C81.4518 7.53906 82.2591 6.08073 83.3008 4.88281C84.3555 3.67188 85.6185 2.7474 87.0898 2.10938C88.5612 1.47135 90.1953 1.15234 91.9922 1.15234C94.4661 1.15234 96.556 1.59505 98.2617 2.48047C99.9674 3.36589 101.289 4.58333 102.227 6.13281C103.164 7.66927 103.717 9.42057 103.887 11.3867H97.0508C97.0247 10.319 96.8424 9.42708 96.5039 8.71094C96.1654 7.98177 95.6315 7.4349 94.9023 7.07031C94.1732 6.70573 93.2031 6.52344 91.9922 6.52344C91.1458 6.52344 90.4102 6.67969 89.7852 6.99219C89.1602 7.30469 88.6393 7.79948 88.2227 8.47656C87.806 9.15365 87.4935 10.0326 87.2852 11.1133C87.0898 12.181 86.9922 13.4701 86.9922 14.9805V16.5625C86.9922 18.0729 87.0833 19.362 87.2656 20.4297C87.4479 21.4974 87.7409 22.3698 88.1445 23.0469C88.5482 23.724 89.069 24.2253 89.707 24.5508C90.3581 24.8633 91.1523 25.0195 92.0898 25.0195C93.1315 25.0195 94.0104 24.8568 94.7266 24.5312C95.4427 24.1927 95.9961 23.6849 96.3867 23.0078C96.7773 22.3177 96.9857 21.4388 97.0117 20.3711ZM113.73 0V30H107.129V0H113.73ZM124.746 8.86719V30H118.145V8.86719H124.746ZM117.754 3.41797C117.754 2.48047 118.092 1.71224 118.77 1.11328C119.447 0.514323 120.326 0.214844 121.406 0.214844C122.487 0.214844 123.366 0.514323 124.043 1.11328C124.72 1.71224 125.059 2.48047 125.059 3.41797C125.059 4.35547 124.72 5.1237 124.043 5.72266C123.366 6.32161 122.487 6.62109 121.406 6.62109C120.326 6.62109 119.447 6.32161 118.77 5.72266C118.092 5.1237 117.754 4.35547 117.754 3.41797ZM135.273 13.3789V30H128.691V8.86719H134.863L135.273 13.3789ZM134.492 18.7109L132.949 18.75C132.949 17.1354 133.145 15.6966 133.535 14.4336C133.926 13.1576 134.479 12.0768 135.195 11.1914C135.911 10.306 136.764 9.63542 137.754 9.17969C138.757 8.71094 139.87 8.47656 141.094 8.47656C142.07 8.47656 142.962 8.61979 143.77 8.90625C144.59 9.19271 145.293 9.65495 145.879 10.293C146.478 10.931 146.934 11.7773 147.246 12.832C147.572 13.8737 147.734 15.1628 147.734 16.6992V30H141.113V16.6797C141.113 15.8333 140.996 15.1888 140.762 14.7461C140.527 14.2904 140.189 13.9779 139.746 13.8086C139.303 13.6393 138.763 13.5547 138.125 13.5547C137.448 13.5547 136.875 13.6849 136.406 13.9453C135.938 14.2057 135.56 14.5703 135.273 15.0391C135 15.4948 134.798 16.0352 134.668 16.6602C134.551 17.2852 134.492 17.9688 134.492 18.7109ZM158.34 8.86719V30H151.738V8.86719H158.34ZM151.348 3.41797C151.348 2.48047 151.686 1.71224 152.363 1.11328C153.04 0.514323 153.919 0.214844 155 0.214844C156.081 0.214844 156.96 0.514323 157.637 1.11328C158.314 1.71224 158.652 2.48047 158.652 3.41797C158.652 4.35547 158.314 5.1237 157.637 5.72266C156.96 6.32161 156.081 6.62109 155 6.62109C153.919 6.62109 153.04 6.32161 152.363 5.72266C151.686 5.1237 151.348 4.35547 151.348 3.41797ZM171.328 25.3125C171.94 25.3125 172.461 25.2018 172.891 24.9805C173.333 24.7461 173.665 24.4206 173.887 24.0039C174.121 23.5742 174.232 23.0599 174.219 22.4609H180.41C180.423 24.0495 180.033 25.4427 179.238 26.6406C178.457 27.8255 177.389 28.75 176.035 29.4141C174.694 30.0651 173.177 30.3906 171.484 30.3906C169.831 30.3906 168.385 30.1237 167.148 29.5898C165.911 29.043 164.876 28.2878 164.043 27.3242C163.223 26.3477 162.604 25.2083 162.188 23.9062C161.784 22.6042 161.582 21.1914 161.582 19.668V19.2188C161.582 17.6953 161.784 16.2826 162.188 14.9805C162.604 13.6654 163.223 12.526 164.043 11.5625C164.876 10.5859 165.905 9.83073 167.129 9.29688C168.366 8.75 169.805 8.47656 171.445 8.47656C173.203 8.47656 174.753 8.80859 176.094 9.47266C177.448 10.1367 178.509 11.1003 179.277 12.3633C180.046 13.6263 180.423 15.1562 180.41 16.9531H174.219C174.232 16.3151 174.134 15.7422 173.926 15.2344C173.717 14.7266 173.392 14.3229 172.949 14.0234C172.52 13.7109 171.966 13.5547 171.289 13.5547C170.612 13.5547 170.065 13.7044 169.648 14.0039C169.232 14.3034 168.913 14.7201 168.691 15.2539C168.483 15.7747 168.34 16.3737 168.262 17.0508C168.197 17.7279 168.164 18.4505 168.164 19.2188V19.668C168.164 20.4492 168.197 21.1849 168.262 21.875C168.34 22.5521 168.49 23.151 168.711 23.6719C168.932 24.1797 169.251 24.5833 169.668 24.8828C170.085 25.1693 170.638 25.3125 171.328 25.3125Z" fill="#34C9B6"/>
</svg>
